<?xml version="1.0" encoding="UTF-8"?>
<svg id="Capa_1" data-name="Capa 1" xmlns="http://www.w3.org/2000/svg" viewBox="0 0 621 408.53">
  <defs>
    <style>
      .cls-1 {
        fill: none;
      }

      .cls-2 {
        fill: #c40123;
      }
    </style>
  </defs>
  <rect class="cls-1" y="11.52" width="621" height="144"/>
  <path class="cls-2" d="M13.61,14.04c0,.48-.19.98-.58,1.51-.38.53-.8,1.07-1.26,1.62-.46.55-.88,1.12-1.26,1.69-.38.58-.58,1.18-.58,1.8,0,.43.19.88.58,1.33.38.46.8.96,1.26,1.51s.88,1.18,1.26,1.87c.38.7.58,1.5.58,2.41,0,1.87-.62,3.26-1.87,4.18-1.25.91-2.74,1.37-4.46,1.37-1.97,0-3.49-.58-4.57-1.73s-1.62-2.74-1.62-4.75c0-1.58.35-3.19,1.04-4.82.7-1.63,1.6-3.12,2.7-4.46,1.1-1.34,2.32-2.45,3.64-3.31,1.32-.86,2.63-1.3,3.92-1.3.82,0,1.22.36,1.22,1.08Z"/>
  <path class="cls-2" d="M63.29,15.62c0,.62-.18,1.04-.54,1.26-.36.22-.74.47-1.15.76s-.79.72-1.15,1.3c-.36.58-.54,1.51-.54,2.81v32.11c0,3.26-1.18,4.9-3.53,4.9-.82,0-1.6-.18-2.34-.54s-1.45-.95-2.12-1.76l-22.54-27.43v21.24c0,1.3.18,2.23.54,2.81s.74,1.01,1.15,1.3c.41.29.79.54,1.15.76.36.22.54.64.54,1.26,0,1.06-.67,1.58-2.02,1.58h-8.28c-1.34,0-2.02-.53-2.02-1.58,0-.62.18-1.04.54-1.26.36-.22.74-.47,1.15-.76.41-.29.79-.72,1.15-1.3.36-.58.54-1.51.54-2.81v-28.51c0-1.3-.18-2.23-.54-2.81-.36-.58-.74-1.01-1.15-1.3-.41-.29-.79-.54-1.15-.76-.36-.22-.54-.64-.54-1.26,0-1.06.67-1.58,2.02-1.58h7.06c.67,0,1.24.12,1.69.36.46.24.9.62,1.33,1.15l21.82,26.5v-20.31c0-1.3-.18-2.23-.54-2.81-.36-.58-.74-1.01-1.15-1.3s-.79-.54-1.15-.76c-.36-.22-.54-.64-.54-1.26,0-1.06.67-1.58,2.02-1.58h8.28c1.34,0,2.02.53,2.02,1.58Z"/>
  <path class="cls-2" d="M77.83,57.85c-2.16-.84-4-2.03-5.51-3.56s-2.68-3.4-3.49-5.58c-.82-2.18-1.22-4.62-1.22-7.31s.41-5.04,1.22-7.2,1.99-4,3.53-5.51,3.38-2.68,5.54-3.49,4.56-1.22,7.2-1.22,5.1.41,7.24,1.22,3.97,1.98,5.51,3.49,2.71,3.35,3.53,5.51,1.22,4.56,1.22,7.2-.41,5.12-1.22,7.31c-.82,2.18-1.98,4.04-3.49,5.58s-3.35,2.72-5.51,3.56c-2.16.84-4.58,1.26-7.27,1.26s-5.11-.42-7.27-1.26ZM89.64,51.3c.96-2.09,1.44-5.39,1.44-9.9s-.47-7.7-1.4-9.72-2.46-3.02-4.57-3.02-3.58,1.02-4.54,3.06c-.96,2.04-1.44,5.27-1.44,9.68,0,8.69,1.99,13.03,5.98,13.03,2.06,0,3.58-1.04,4.54-3.13Z"/>
  <path class="cls-2" d="M142.02,53.06c.36.58.74,1.01,1.15,1.3.41.29.79.54,1.15.76.36.22.54.64.54,1.26,0,1.06-.67,1.58-2.02,1.58h-13.54c-1.34,0-2.02-.53-2.02-1.58,0-.62.18-1.04.54-1.26.36-.22.74-.47,1.15-.76.41-.29.79-.72,1.15-1.3.36-.58.54-1.51.54-2.81v-11.59c0-2.98-.32-5.05-.97-6.23s-1.79-1.76-3.42-1.76c-3.89,0-5.83,2.95-5.83,8.86v10.73c0,1.3.18,2.23.54,2.81.36.58.74,1.01,1.15,1.3.41.29.79.54,1.15.76.36.22.54.64.54,1.26,0,1.06-.67,1.58-2.02,1.58h-13.54c-1.34,0-2.02-.53-2.02-1.58,0-.62.18-1.04.54-1.26.36-.22.74-.47,1.15-.76.41-.29.79-.72,1.15-1.3s.54-1.51.54-2.81v-15.19c0-1.06-.02-1.91-.07-2.56-.05-.65-.14-1.18-.29-1.58-.14-.41-.34-.73-.58-.97-.24-.24-.55-.46-.94-.65-.62-.34-1.04-.66-1.26-.97-.22-.31-.32-.68-.32-1.12,0-.58.18-.97.54-1.19.36-.22.92-.4,1.69-.54.77-.14,1.67-.28,2.7-.4s2.05-.24,3.06-.36c1.01-.12,1.94-.22,2.81-.29.86-.07,1.49-.11,1.87-.11.62,0,1.04.13,1.26.4.22.26.32.66.32,1.19v3.24c.96-1.63,2.36-2.9,4.21-3.82s3.95-1.37,6.3-1.37c7.01,0,10.51,4.39,10.51,13.18v13.1c0,1.3.18,2.23.54,2.81Z"/>
  <path class="cls-2" d="M170.85,58.5c-1.82-.41-3.38-.98-4.68-1.73s-2.29-1.63-2.99-2.66c-.7-1.03-1.04-2.2-1.04-3.49,0-1.1.26-1.96.79-2.56.53-.6,1.27-.9,2.23-.9,1.25,0,2.22.41,2.92,1.22.7.82,1.39,1.7,2.09,2.67.7.96,1.56,1.85,2.59,2.66,1.03.82,2.51,1.22,4.43,1.22,3.41,0,5.11-1.32,5.11-3.96,0-1.06-.29-1.87-.86-2.45-.58-.58-1.58-1.06-3.02-1.44l-4.39-1.22c-3.98-1.1-6.82-2.54-8.5-4.32-1.68-1.78-2.52-4.2-2.52-7.27s1.27-5.68,3.82-7.52c2.54-1.85,6.02-2.77,10.44-2.77,3.98,0,7.14.54,9.47,1.62,2.33,1.08,3.49,2.53,3.49,4.36,0,1.1-.28,1.97-.83,2.59-.55.62-1.28.94-2.2.94-1.15,0-2.15-.28-2.99-.83-.84-.55-1.66-1.15-2.45-1.8s-1.64-1.25-2.56-1.8c-.91-.55-2.02-.83-3.31-.83-1.2,0-2.14.28-2.81.83-.67.55-1.01,1.31-1.01,2.27s.4,1.74,1.19,2.48,1.84,1.31,3.13,1.69l4.39,1.22c3.84,1.06,6.58,2.46,8.21,4.21,1.63,1.75,2.45,4.12,2.45,7.09,0,3.46-1.28,6.17-3.85,8.14-2.57,1.97-6.13,2.95-10.69,2.95-2.21,0-4.22-.2-6.05-.61Z"/>
  <path class="cls-2" d="M231.8,54.75c.22.31.32.68.32,1.12,0,.58-.18.97-.54,1.19-.36.22-.92.4-1.69.54-.77.14-1.67.28-2.7.4l-3.1.36c-1.03.12-1.97.22-2.81.29-.84.07-1.45.11-1.84.11-.62,0-1.04-.13-1.26-.4-.22-.26-.32-.66-.32-1.19v-3.24c-.96,1.68-2.36,2.96-4.21,3.85-1.85.89-3.88,1.33-6.08,1.33-3.31,0-5.87-1.06-7.67-3.17-1.8-2.11-2.7-5.47-2.7-10.08v-13.03c0-1.3-.18-2.23-.54-2.81-.36-.58-.74-1.01-1.15-1.3-.41-.29-.79-.54-1.15-.76-.36-.22-.54-.64-.54-1.26,0-1.06.67-1.58,2.02-1.58h10.22c1.3,0,1.94.65,1.94,1.94v18c0,2.74.32,4.64.97,5.72s1.74,1.62,3.28,1.62c3.74,0,5.62-2.71,5.62-8.14v-11.45c0-1.3-.18-2.23-.54-2.81-.36-.58-.74-1.01-1.15-1.3-.41-.29-.79-.54-1.15-.76-.36-.22-.54-.64-.54-1.26,0-1.06.67-1.58,2.02-1.58h10.15c1.34,0,2.02.65,2.02,1.94v20.95c0,1.06.02,1.91.07,2.56.05.65.14,1.18.29,1.58.14.41.34.73.58.97.24.24.55.46.94.65.62.34,1.04.66,1.26.97Z"/>
  <path class="cls-2" d="M271.69,52.88c.5.55,1.06.98,1.66,1.3.6.31,1.15.6,1.66.86.5.26.76.71.76,1.33,0,1.06-.67,1.58-2.02,1.58h-14.98c-1.34,0-2.02-.53-2.02-1.58,0-.62.18-1.04.54-1.26.36-.22.74-.47,1.15-.76.41-.29.79-.72,1.15-1.3s.54-1.51.54-2.81v-14.76c0-1.82-.16-3.13-.47-3.92s-.95-1.5-1.91-2.12c-.58-.38-.98-.76-1.22-1.12-.24-.36-.36-.83-.36-1.4,0-1.2.65-1.8,1.94-1.8h.72c.48,0,.79-.1.94-.29.14-.19.26-.55.36-1.08.1-.82.29-1.6.58-2.34s.62-1.45,1.01-2.12c-.62.29-1.42.43-2.38.43-1.06,0-1.93-.07-2.63-.22-.7-.14-1.36-.31-1.98-.5-.62-.19-1.26-.36-1.91-.5-.65-.14-1.45-.22-2.41-.22-1.25,0-2.22.3-2.92.9-.7.6-1.04,1.38-1.04,2.34,0,2.4,1.94,3.6,5.83,3.6.96,0,1.64.16,2.05.47.41.31.61.88.61,1.69,0,1.44-.86,2.16-2.59,2.16h-3.17v20.81c0,1.2.25,2.08.76,2.63.5.55,1.06.98,1.66,1.3.6.31,1.15.6,1.66.86.5.26.76.71.76,1.33,0,1.06-.67,1.58-2.02,1.58h-14.98c-1.34,0-2.02-.53-2.02-1.58,0-.62.18-1.04.54-1.26.36-.22.74-.47,1.15-.76s.79-.72,1.15-1.3c.36-.58.54-1.51.54-2.81v-14.76c0-1.68-.13-2.95-.4-3.82-.26-.86-.92-1.61-1.98-2.23-.58-.38-.98-.76-1.22-1.12-.24-.36-.36-.83-.36-1.4,0-1.2.65-1.8,1.94-1.8h.72c.53,0,.85-.08.97-.25s.23-.54.32-1.12c.24-1.78.82-3.43,1.73-4.97.91-1.54,2.11-2.87,3.6-4s3.22-2.02,5.18-2.66,4.13-.97,6.48-.97c2.74,0,4.82.4,6.26,1.19,1.44.79,2.16,1.93,2.16,3.42,0,.43-.02.77-.07,1.01,1.92-2.02,4.42-3.58,7.49-4.68,3.07-1.1,6.48-1.66,10.23-1.66,3.22,0,5.66.43,7.34,1.3,1.68.86,2.52,2.14,2.52,3.82,0,1.54-.48,2.74-1.44,3.6-.96.86-2.33,1.3-4.1,1.3-1.3,0-2.39-.11-3.28-.32-.89-.22-1.75-.47-2.59-.76-.84-.29-1.73-.54-2.66-.76s-2.12-.32-3.56-.32c-1.82,0-3.19.3-4.1.9s-1.37,1.45-1.37,2.56.4,1.94,1.19,2.52c.79.58,1.86.86,3.2.86,1.01,0,1.7.16,2.09.47.38.31.58.88.58,1.69,0,1.44-.86,2.16-2.59,2.16h-1.73v20.81c0,1.2.25,2.08.76,2.63ZM293.22,53.06c.36.58.74,1.01,1.15,1.3.41.29.79.54,1.15.76.36.22.54.64.54,1.26,0,1.06-.67,1.58-2.02,1.58h-13.54c-1.34,0-2.02-.53-2.02-1.58,0-.62.18-1.04.54-1.26.36-.22.74-.47,1.15-.76s.79-.72,1.15-1.3c.36-.58.54-1.51.54-2.81v-15.19c0-1.06-.02-1.91-.07-2.56-.05-.65-.14-1.18-.29-1.58s-.34-.73-.58-.97c-.24-.24-.55-.46-.94-.65-.62-.34-1.04-.66-1.26-.97-.22-.31-.32-.68-.32-1.12,0-.58.18-.97.54-1.19s.92-.4,1.69-.54c.77-.14,1.67-.28,2.7-.4l3.1-.36c1.03-.12,1.98-.22,2.84-.29.86-.07,1.46-.11,1.8-.11.62,0,1.04.13,1.26.4.22.26.32.66.32,1.19v24.34c0,1.3.18,2.23.54,2.81Z"/>
  <path class="cls-2" d="M309.27,57.82c-1.99-.86-3.71-2.08-5.15-3.64-1.44-1.56-2.57-3.41-3.38-5.54-.82-2.14-1.22-4.5-1.22-7.09s.41-5.11,1.22-7.27,1.97-4,3.46-5.51c1.49-1.51,3.3-2.69,5.44-3.53,2.14-.84,4.5-1.26,7.09-1.26,1.78,0,3.42.23,4.93.68,1.51.46,2.83,1.09,3.96,1.91,1.13.82,2,1.76,2.63,2.84s.94,2.27.94,3.56c0,1.15-.34,2.06-1.01,2.74s-1.58,1.01-2.74,1.01c-1.3,0-2.28-.42-2.95-1.26s-1.26-1.76-1.76-2.77c-.5-1.01-1.04-1.93-1.62-2.77-.58-.84-1.46-1.26-2.66-1.26-1.68,0-3,1.09-3.96,3.28s-1.44,5.15-1.44,8.89.64,6.58,1.91,8.5,3.13,2.88,5.58,2.88c1.2,0,2.54-.26,4.03-.79,1.49-.53,2.74-1.2,3.74-2.02.91-.72,1.54-1.08,1.87-1.08.58,0,.86.48.86,1.44,0,1.54-.55,2.98-1.66,4.32-1.25,1.54-2.9,2.76-4.97,3.67s-4.25,1.37-6.55,1.37-4.6-.43-6.59-1.3Z"/>
  <path class="cls-2" d="M332.85,56.38c0-.62.18-1.04.54-1.26.36-.22.74-.47,1.15-.76s.79-.72,1.15-1.3.54-1.51.54-2.81v-15.19c0-1.06-.02-1.91-.07-2.56-.05-.65-.14-1.18-.29-1.58-.14-.41-.34-.73-.58-.97s-.55-.46-.94-.65c-.62-.34-1.04-.66-1.26-.97-.22-.31-.32-.68-.32-1.12,0-.53.18-.91.54-1.15.36-.24.9-.43,1.62-.58.77-.14,1.69-.29,2.77-.43,1.08-.14,2.14-.28,3.17-.4s1.97-.2,2.81-.25c.84-.05,1.43-.07,1.76-.07.62,0,1.04.13,1.26.4.22.26.32.66.32,1.19v24.34c0,1.3.18,2.23.54,2.81s.74,1.01,1.15,1.3.79.54,1.15.76c.36.22.54.64.54,1.26,0,1.06-.67,1.58-2.02,1.58h-13.54c-1.34,0-2.02-.53-2.02-1.58ZM336.7,18.5c-1.18-.96-1.76-2.23-1.76-3.82s.59-2.86,1.76-3.82c1.18-.96,2.77-1.44,4.79-1.44s3.62.48,4.82,1.44,1.8,2.23,1.8,3.82-.6,2.86-1.8,3.82c-1.2.96-2.81,1.44-4.82,1.44s-3.61-.48-4.79-1.44Z"/>
  <path class="cls-2" d="M379.08,50.9c0,.91-.26,1.82-.79,2.74-.43.77-1.03,1.49-1.8,2.16-.77.67-1.66,1.25-2.67,1.73-1.01.48-2.1.86-3.28,1.15-1.18.29-2.39.43-3.64.43-6.82,0-10.22-3.46-10.22-10.37v-13.54c0-.91-.02-1.67-.07-2.27-.05-.6-.17-1.1-.36-1.51-.19-.41-.43-.77-.72-1.08-.29-.31-.7-.61-1.22-.9-1.06-.67-1.58-1.49-1.58-2.45,0-.58.17-1.02.5-1.33.34-.31.98-.61,1.94-.9.77-.24,1.45-.5,2.05-.79.6-.29,1.15-.71,1.66-1.26.5-.55,1.01-1.24,1.51-2.05.5-.82,1.07-1.82,1.69-3.02.48-.96.92-1.61,1.33-1.94s.88-.5,1.4-.5c.58,0,1,.19,1.26.58.26.38.44,1.1.54,2.16l.72,7.2h7.34c1.1,0,1.87.16,2.3.47.43.31.65.88.65,1.69,0,1.44-.96,2.16-2.88,2.16h-7.27v18.65c0,1.82.23,3.1.68,3.82.46.72,1.26,1.08,2.41,1.08,1.06,0,2.03-.26,2.92-.79.89-.53,1.67-1.06,2.34-1.58.43-.34.83-.62,1.19-.86.36-.24.68-.36.97-.36.72,0,1.08.5,1.08,1.51Z"/>
  <path class="cls-2" d="M407.08,57.85c-2.16-.84-4-2.03-5.51-3.56-1.51-1.54-2.68-3.4-3.49-5.58-.82-2.18-1.22-4.62-1.22-7.31s.41-5.04,1.22-7.2c.82-2.16,1.99-4,3.53-5.51,1.54-1.51,3.38-2.68,5.54-3.49s4.56-1.22,7.2-1.22,5.1.41,7.24,1.22c2.14.82,3.97,1.98,5.51,3.49s2.71,3.35,3.53,5.51c.82,2.16,1.22,4.56,1.22,7.2s-.41,5.12-1.22,7.31c-.82,2.18-1.98,4.04-3.49,5.58-1.51,1.54-3.35,2.72-5.51,3.56-2.16.84-4.58,1.26-7.27,1.26s-5.11-.42-7.27-1.26ZM418.89,51.3c.96-2.09,1.44-5.39,1.44-9.9s-.47-7.7-1.4-9.72c-.94-2.02-2.46-3.02-4.57-3.02s-3.58,1.02-4.54,3.06-1.44,5.27-1.44,9.68c0,8.69,1.99,13.03,5.98,13.03,2.06,0,3.58-1.04,4.54-3.13Z"/>
  <path class="cls-2" d="M462.7,25.27c1.13.86,1.69,2.09,1.69,3.67,0,1.39-.35,2.5-1.04,3.31-.7.82-1.6,1.22-2.7,1.22-.58,0-1.1-.07-1.58-.22-.48-.14-.96-.31-1.44-.5-.48-.19-.96-.36-1.44-.5-.48-.14-.98-.22-1.51-.22-1.58,0-2.81.66-3.67,1.98-.86,1.32-1.3,3.2-1.3,5.65v10.58c0,1.2.25,2.08.76,2.63.5.55,1.06.98,1.66,1.3.6.31,1.15.6,1.66.86.5.26.76.71.76,1.33,0,1.06-.67,1.58-2.02,1.58h-14.98c-1.34,0-2.02-.53-2.02-1.58,0-.62.18-1.04.54-1.26.36-.22.74-.47,1.15-.76s.79-.72,1.15-1.3.54-1.51.54-2.81v-15.19c0-1.06-.02-1.91-.07-2.56-.05-.65-.14-1.18-.29-1.58-.14-.41-.34-.73-.58-.97s-.55-.46-.94-.65c-.62-.34-1.04-.66-1.26-.97-.22-.31-.32-.68-.32-1.12,0-.58.18-.97.54-1.19.36-.22.92-.4,1.69-.54.77-.14,1.67-.28,2.7-.4l3.1-.36c1.03-.12,1.98-.22,2.84-.29.86-.07,1.46-.11,1.8-.11.62,0,1.04.13,1.26.4.22.26.32.66.32,1.19v4.03c.82-1.92,1.93-3.4,3.35-4.43s3.04-1.55,4.86-1.55c2.06,0,3.66.43,4.79,1.3Z"/>
  <path class="cls-2" d="M498.49,28.36c2.18,2.93,3.28,7.18,3.28,12.75s-1.52,10.26-4.57,13.36c-3.05,3.1-7.48,4.64-13.29,4.64-10.23,0-15.34-4.73-15.34-14.19v-22.68c0-1.06-.02-1.91-.07-2.56-.05-.65-.14-1.18-.29-1.58-.14-.41-.34-.73-.58-.97s-.55-.46-.94-.65c-.62-.34-1.04-.66-1.26-.97-.22-.31-.32-.68-.32-1.12,0-.53.18-.91.54-1.15s.9-.43,1.62-.58c.77-.14,1.68-.29,2.74-.43,1.06-.14,2.11-.28,3.17-.4,1.06-.12,2-.2,2.84-.25s1.43-.07,1.76-.07c.62,0,1.04.13,1.26.4.22.26.32.66.32,1.19v15.12c1.06-1.3,2.42-2.33,4.1-3.1,1.68-.77,3.5-1.15,5.47-1.15,4.18,0,7.36,1.46,9.54,4.39ZM488.91,51.48c.89-1.97,1.33-5.09,1.33-9.36s-.42-7.01-1.26-8.78-2.24-2.66-4.21-2.66c-3.84,0-5.76,3.05-5.76,9.14v5.11c0,3.26.46,5.67,1.37,7.2s2.3,2.3,4.18,2.3c2.02,0,3.47-.98,4.36-2.95Z"/>
  <path class="cls-2" d="M505.43,56.38c0-.62.18-1.04.54-1.26.36-.22.74-.47,1.15-.76s.79-.72,1.15-1.3.54-1.51.54-2.81v-15.19c0-1.06-.02-1.91-.07-2.56-.05-.65-.14-1.18-.29-1.58-.14-.41-.34-.73-.58-.97s-.55-.46-.94-.65c-.62-.34-1.04-.66-1.26-.97-.22-.31-.32-.68-.32-1.12,0-.53.18-.91.54-1.15.36-.24.9-.43,1.62-.58.77-.14,1.69-.29,2.77-.43,1.08-.14,2.14-.28,3.17-.4s1.97-.2,2.81-.25c.84-.05,1.43-.07,1.76-.07.62,0,1.04.13,1.26.4.22.26.32.66.32,1.19v24.34c0,1.3.18,2.23.54,2.81s.74,1.01,1.15,1.3.79.54,1.15.76c.36.22.54.64.54,1.26,0,1.06-.67,1.58-2.02,1.58h-13.54c-1.34,0-2.02-.53-2.02-1.58ZM509.28,18.5c-1.18-.96-1.76-2.23-1.76-3.82s.59-2.86,1.76-3.82c1.18-.96,2.77-1.44,4.79-1.44s3.62.48,4.82,1.44,1.8,2.23,1.8,3.82-.6,2.86-1.8,3.82c-1.2.96-2.81,1.44-4.82,1.44s-3.61-.48-4.79-1.44Z"/>
  <path class="cls-2" d="M534.66,58.5c-1.82-.41-3.38-.98-4.68-1.73s-2.29-1.63-2.99-2.66-1.04-2.2-1.04-3.49c0-1.1.26-1.96.79-2.56.53-.6,1.27-.9,2.23-.9,1.25,0,2.22.41,2.92,1.22.7.82,1.39,1.7,2.09,2.67.7.96,1.56,1.85,2.59,2.66,1.03.82,2.51,1.22,4.43,1.22,3.41,0,5.11-1.32,5.11-3.96,0-1.06-.29-1.87-.86-2.45s-1.58-1.06-3.02-1.44l-4.39-1.22c-3.98-1.1-6.82-2.54-8.5-4.32-1.68-1.78-2.52-4.2-2.52-7.27s1.27-5.68,3.82-7.52c2.54-1.85,6.02-2.77,10.44-2.77,3.98,0,7.14.54,9.47,1.62s3.49,2.53,3.49,4.36c0,1.1-.28,1.97-.83,2.59-.55.62-1.28.94-2.2.94-1.15,0-2.15-.28-2.99-.83-.84-.55-1.66-1.15-2.45-1.8-.79-.65-1.64-1.25-2.56-1.8-.91-.55-2.02-.83-3.31-.83-1.2,0-2.14.28-2.81.83-.67.55-1.01,1.31-1.01,2.27s.4,1.74,1.19,2.48,1.84,1.31,3.13,1.69l4.39,1.22c3.84,1.06,6.58,2.46,8.21,4.21,1.63,1.75,2.45,4.12,2.45,7.09,0,3.46-1.28,6.17-3.85,8.14-2.57,1.97-6.13,2.95-10.69,2.95-2.21,0-4.22-.2-6.05-.61Z"/>
  <path class="cls-2" d="M560.15,32.25c0-.53.19-1.04.58-1.55.38-.5.8-1.03,1.26-1.58.46-.55.88-1.12,1.26-1.69.38-.58.58-1.18.58-1.8,0-.43-.19-.88-.58-1.33-.38-.46-.8-.96-1.26-1.51-.46-.55-.88-1.18-1.26-1.87-.38-.7-.58-1.5-.58-2.41,0-1.87.62-3.28,1.87-4.21,1.25-.94,2.74-1.4,4.46-1.4,1.97,0,3.49.58,4.57,1.73s1.62,2.74,1.62,4.75c0,1.58-.35,3.21-1.04,4.86-.7,1.66-1.6,3.16-2.7,4.5-1.1,1.34-2.32,2.45-3.64,3.31-1.32.86-2.63,1.3-3.92,1.3-.82,0-1.22-.36-1.22-1.08Z"/>
</svg>